<svg width="44" height="43" viewBox="0 0 44 43" fill="none" xmlns="http://www.w3.org/2000/svg">
<path d="M37.558 40.425C38.9201 39.0036 39.8101 37.0745 40.0641 34.9927C40.1112 34.6059 40.2421 33.5416 40.4264 32.0508C43.2854 8.86173 43.2854 8.60287 43.2854 8.24497C43.2854 8.15686 43.2838 8.06563 43.2807 7.97441C43.207 5.68513 42.1547 3.51282 40.3943 2.01262C38.6064 0.489041 36.2414 -0.222068 33.9047 0.060972L7.26036 3.29605C3.90345 3.70385 1.09152 6.13737 0.262687 9.35218C0.088608 10.0266 0 10.7237 0 11.4239C0 11.5128 0.00156828 11.604 0.00470485 11.6984C0.102723 14.6761 1.85606 17.3654 4.58017 18.7167C7.64773 20.1537 13.8323 21.8145 17.5067 25.4683C21.1812 29.1221 22.842 35.264 24.2872 38.3135L24.2974 38.333C25.6618 41.0675 28.3828 42.8297 31.4002 42.9311C31.4958 42.9342 31.5915 42.9357 31.6864 42.9357C33.9204 42.9357 36.0054 42.0437 37.5572 40.4235L37.558 40.425Z" fill="url(#paint0_linear_2_1404)"/>
<path opacity="0.4" d="M26.355 34.6404C26.355 37.5683 28.7513 39.9449 31.6856 39.9449C34.6198 39.9449 37.0248 37.5597 37.0248 34.6404C37.0248 31.7211 34.6285 29.3359 31.6856 29.3359C28.7435 29.3359 26.355 31.7211 26.355 34.6404Z" fill="white"/>
<path opacity="0.4" d="M29.5524 8.29666C29.5524 11.2245 31.9488 13.6011 34.883 13.6011C37.8173 13.6011 40.2222 11.216 40.2222 8.29666C40.2222 5.37737 37.8259 2.99219 34.883 2.99219C31.9409 2.99219 29.5524 5.37737 29.5524 8.29666Z" fill="white"/>
<path opacity="0.4" d="M3.06396 11.4754C3.06396 14.4032 5.4603 16.7798 8.40318 16.7798C11.3461 16.7798 13.7338 14.3947 13.7338 11.4754C13.7338 8.55608 11.3374 6.1709 8.40318 6.1709C5.46893 6.1709 3.06396 8.55608 3.06396 11.4754Z" fill="white"/>
<defs>
<linearGradient id="paint0_linear_2_1404" x1="9.15" y1="28.8" x2="36.75" y2="-3.6" gradientUnits="userSpaceOnUse">
<stop stop-color="#9B8564"/>
<stop offset="1" stop-color="#DBD5C7"/>
</linearGradient>
</defs>
</svg>
